<mxfile host="app.diagrams.net" modified="2023-08-24T09:16:45.145Z" agent="Mozilla/5.0 (Macintosh; Intel Mac OS X 10_15_7) AppleWebKit/537.36 (KHTML, like Gecko) Chrome/116.0.0.0 Safari/537.36" etag="_d-AgNAdgkRyVy9GelR5" version="21.1.2" type="device">
  <diagram name="Page-1" id="e7e014a7-5840-1c2e-5031-d8a46d1fe8dd">
    <mxGraphModel dx="954" dy="642" grid="1" gridSize="10" guides="1" tooltips="1" connect="1" arrows="1" fold="1" page="1" pageScale="1" pageWidth="1169" pageHeight="826" background="none" math="0" shadow="0">
      <root>
        <mxCell id="0" />
        <mxCell id="1" parent="0" />
        <mxCell id="2" value="Thread 1" style="swimlane;whiteSpace=wrap" parent="1" vertex="1">
          <mxGeometry x="90" y="128" width="240" height="412" as="geometry" />
        </mxCell>
        <mxCell id="7" value="Client" style="" parent="2" vertex="1">
          <mxGeometry x="60" y="110" width="110" height="50" as="geometry" />
        </mxCell>
        <mxCell id="pXFlcNNuTOrSGA1mzF-2-44" value="GET request" style="text;html=1;strokeColor=none;fillColor=none;align=center;verticalAlign=middle;whiteSpace=wrap;rounded=0;" vertex="1" parent="2">
          <mxGeometry x="215.5" y="92" width="60" height="30" as="geometry" />
        </mxCell>
        <mxCell id="pXFlcNNuTOrSGA1mzF-2-58" value="&lt;h1&gt;Client&lt;/h1&gt;&lt;p&gt;Sends an HTTP GET request to the aggregation server and it&#39;s replicas to retrieve the current weather data and displays it.&lt;br&gt;&lt;/p&gt;" style="text;html=1;strokeColor=none;fillColor=none;spacing=5;spacingTop=-20;whiteSpace=wrap;overflow=hidden;rounded=0;" vertex="1" parent="2">
          <mxGeometry x="20" y="202" width="190" height="120" as="geometry" />
        </mxCell>
        <mxCell id="pXFlcNNuTOrSGA1mzF-2-118" value="" style="endArrow=classic;startArrow=classic;html=1;rounded=0;entryX=-0.025;entryY=0.708;entryDx=0;entryDy=0;entryPerimeter=0;" edge="1" parent="2" target="pXFlcNNuTOrSGA1mzF-2-82">
          <mxGeometry width="50" height="50" relative="1" as="geometry">
            <mxPoint x="110" y="112" as="sourcePoint" />
            <mxPoint x="160" y="62" as="targetPoint" />
          </mxGeometry>
        </mxCell>
        <mxCell id="pXFlcNNuTOrSGA1mzF-2-119" value="" style="endArrow=classic;startArrow=classic;html=1;rounded=0;entryX=0.275;entryY=1.042;entryDx=0;entryDy=0;entryPerimeter=0;" edge="1" parent="2" target="pXFlcNNuTOrSGA1mzF-2-83">
          <mxGeometry width="50" height="50" relative="1" as="geometry">
            <mxPoint x="150" y="112" as="sourcePoint" />
            <mxPoint x="200" y="62" as="targetPoint" />
          </mxGeometry>
        </mxCell>
        <mxCell id="3" value="Thread 2" style="swimlane;whiteSpace=wrap" parent="1" vertex="1">
          <mxGeometry x="330" y="128" width="390" height="410" as="geometry" />
        </mxCell>
        <mxCell id="15" value="Aggregation Server" style="" parent="3" vertex="1">
          <mxGeometry x="127.75" y="110" width="110" height="50" as="geometry" />
        </mxCell>
        <mxCell id="pXFlcNNuTOrSGA1mzF-2-53" value="HTTP PUT request" style="text;html=1;strokeColor=none;fillColor=none;align=center;verticalAlign=middle;whiteSpace=wrap;rounded=0;" vertex="1" parent="3">
          <mxGeometry x="280" y="152" width="60" height="30" as="geometry" />
        </mxCell>
        <mxCell id="pXFlcNNuTOrSGA1mzF-2-56" value="&lt;h1&gt;Aggregation Server and replicas&lt;/h1&gt;&lt;p&gt;&amp;nbsp;Responds to client requests for weather data and accepts new weather updates from content server and it&#39;s replicas. Stores weather information persistently and removes it when it becomes outdated or when the content server that provided it is no longer in contact.&lt;br&gt;&lt;/p&gt;" style="text;html=1;strokeColor=none;fillColor=none;spacing=5;spacingTop=-20;whiteSpace=wrap;overflow=hidden;rounded=0;" vertex="1" parent="3">
          <mxGeometry x="70" y="192" width="225.5" height="218" as="geometry" />
        </mxCell>
        <mxCell id="pXFlcNNuTOrSGA1mzF-2-46" value="Response in JSON format" style="text;html=1;strokeColor=none;fillColor=none;align=center;verticalAlign=middle;whiteSpace=wrap;rounded=0;" vertex="1" parent="3">
          <mxGeometry x="-44.5" y="160" width="60" height="30" as="geometry" />
        </mxCell>
        <mxCell id="4" value="Thread 3" style="swimlane;whiteSpace=wrap" parent="1" vertex="1">
          <mxGeometry x="720" y="128" width="260" height="412" as="geometry" />
        </mxCell>
        <mxCell id="33" value="Content Server" style="" parent="4" vertex="1">
          <mxGeometry x="85" y="110" width="110" height="50" as="geometry" />
        </mxCell>
        <mxCell id="pXFlcNNuTOrSGA1mzF-2-49" value="Updates it&#39;s data and send approriate response" style="text;html=1;strokeColor=none;fillColor=none;align=center;verticalAlign=middle;whiteSpace=wrap;rounded=0;" vertex="1" parent="4">
          <mxGeometry x="-54.5" y="82" width="114.5" height="30" as="geometry" />
        </mxCell>
        <mxCell id="pXFlcNNuTOrSGA1mzF-2-57" value="&lt;h1&gt;Content Server&lt;/h1&gt;Reads weather data from a local file, assembles it into JSON format, and uploads it to the aggregation server and it&#39;s replicas using an HTTP PUT request.&lt;p&gt;.&lt;br&gt;&lt;/p&gt;" style="text;html=1;strokeColor=none;fillColor=none;spacing=5;spacingTop=-20;whiteSpace=wrap;overflow=hidden;rounded=0;" vertex="1" parent="4">
          <mxGeometry x="27.25" y="204" width="222.75" height="186" as="geometry" />
        </mxCell>
        <mxCell id="pXFlcNNuTOrSGA1mzF-2-45" value="" style="endArrow=classic;html=1;rounded=0;entryX=1.05;entryY=0.74;entryDx=0;entryDy=0;entryPerimeter=0;exitX=0;exitY=0.84;exitDx=0;exitDy=0;exitPerimeter=0;" edge="1" parent="1" source="15" target="7">
          <mxGeometry width="50" height="50" relative="1" as="geometry">
            <mxPoint x="510" y="380" as="sourcePoint" />
            <mxPoint x="560" y="330" as="targetPoint" />
          </mxGeometry>
        </mxCell>
        <mxCell id="pXFlcNNuTOrSGA1mzF-2-47" value="" style="endArrow=classic;html=1;rounded=0;entryX=0.005;entryY=0.24;entryDx=0;entryDy=0;entryPerimeter=0;exitX=0.991;exitY=0.25;exitDx=0;exitDy=0;exitPerimeter=0;" edge="1" parent="1" source="15" target="33">
          <mxGeometry width="50" height="50" relative="1" as="geometry">
            <mxPoint x="710" y="300" as="sourcePoint" />
            <mxPoint x="760" y="250" as="targetPoint" />
          </mxGeometry>
        </mxCell>
        <mxCell id="pXFlcNNuTOrSGA1mzF-2-50" value="" style="endArrow=classic;html=1;rounded=0;entryX=1.027;entryY=0.69;entryDx=0;entryDy=0;entryPerimeter=0;exitX=-0.005;exitY=0.75;exitDx=0;exitDy=0;exitPerimeter=0;" edge="1" parent="1" source="33" target="15">
          <mxGeometry width="50" height="50" relative="1" as="geometry">
            <mxPoint x="710" y="330" as="sourcePoint" />
            <mxPoint x="760" y="280" as="targetPoint" />
          </mxGeometry>
        </mxCell>
        <mxCell id="pXFlcNNuTOrSGA1mzF-2-60" value="" style="endArrow=classic;html=1;rounded=0;exitX=1.005;exitY=0.23;exitDx=0;exitDy=0;exitPerimeter=0;entryX=-0.036;entryY=0.21;entryDx=0;entryDy=0;entryPerimeter=0;" edge="1" parent="1" source="7" target="15">
          <mxGeometry width="50" height="50" relative="1" as="geometry">
            <mxPoint x="390" y="280" as="sourcePoint" />
            <mxPoint x="440" y="230" as="targetPoint" />
          </mxGeometry>
        </mxCell>
        <mxCell id="pXFlcNNuTOrSGA1mzF-2-62" value="Unit testing" style="swimlane;fontStyle=0;childLayout=stackLayout;horizontal=1;startSize=30;horizontalStack=0;resizeParent=1;resizeParentMax=0;resizeLast=0;collapsible=1;marginBottom=0;whiteSpace=wrap;html=1;" vertex="1" parent="1">
          <mxGeometry x="180" y="920" width="140" height="370" as="geometry" />
        </mxCell>
        <mxCell id="pXFlcNNuTOrSGA1mzF-2-63" value="Test Aggregation server&#39;s ability to&amp;nbsp;to process PUT and GET requests, update its stored weather data, and send back appropriate responses" style="text;strokeColor=none;fillColor=none;align=left;verticalAlign=middle;spacingLeft=4;spacingRight=4;overflow=hidden;points=[[0,0.5],[1,0.5]];portConstraint=eastwest;rotatable=0;whiteSpace=wrap;html=1;" vertex="1" parent="pXFlcNNuTOrSGA1mzF-2-62">
          <mxGeometry y="30" width="140" height="110" as="geometry" />
        </mxCell>
        <mxCell id="pXFlcNNuTOrSGA1mzF-2-64" value="test the content server’s ability to read weather data from a local file, assemble it into JSON format, and upload it to the aggregation server using an HTTP PUT request" style="text;strokeColor=none;fillColor=none;align=left;verticalAlign=middle;spacingLeft=4;spacingRight=4;overflow=hidden;points=[[0,0.5],[1,0.5]];portConstraint=eastwest;rotatable=0;whiteSpace=wrap;html=1;" vertex="1" parent="pXFlcNNuTOrSGA1mzF-2-62">
          <mxGeometry y="140" width="140" height="120" as="geometry" />
        </mxCell>
        <mxCell id="pXFlcNNuTOrSGA1mzF-2-65" value="test the GET client’s ability to send an HTTP GET request to the aggregation server, retrieve the current weather data, and display it." style="text;strokeColor=none;fillColor=none;align=left;verticalAlign=middle;spacingLeft=4;spacingRight=4;overflow=hidden;points=[[0,0.5],[1,0.5]];portConstraint=eastwest;rotatable=0;whiteSpace=wrap;html=1;" vertex="1" parent="pXFlcNNuTOrSGA1mzF-2-62">
          <mxGeometry y="260" width="140" height="110" as="geometry" />
        </mxCell>
        <mxCell id="pXFlcNNuTOrSGA1mzF-2-66" value="Integration Testing" style="swimlane;fontStyle=0;childLayout=stackLayout;horizontal=1;startSize=30;horizontalStack=0;resizeParent=1;resizeParentMax=0;resizeLast=0;collapsible=1;marginBottom=0;whiteSpace=wrap;html=1;" vertex="1" parent="1">
          <mxGeometry x="320" y="920" width="140" height="370" as="geometry" />
        </mxCell>
        <mxCell id="pXFlcNNuTOrSGA1mzF-2-67" value="test if the content server is able to successfully upload new weather data to the aggregation server and if the GET client is able to retrieve and display this updated weather data." style="text;strokeColor=none;fillColor=none;align=left;verticalAlign=middle;spacingLeft=4;spacingRight=4;overflow=hidden;points=[[0,0.5],[1,0.5]];portConstraint=eastwest;rotatable=0;whiteSpace=wrap;html=1;" vertex="1" parent="pXFlcNNuTOrSGA1mzF-2-66">
          <mxGeometry y="30" width="140" height="340" as="geometry" />
        </mxCell>
        <mxCell id="pXFlcNNuTOrSGA1mzF-2-70" value="Concurrency Testing" style="swimlane;fontStyle=0;childLayout=stackLayout;horizontal=1;startSize=30;horizontalStack=0;resizeParent=1;resizeParentMax=0;resizeLast=0;collapsible=1;marginBottom=0;whiteSpace=wrap;html=1;" vertex="1" parent="1">
          <mxGeometry x="460" y="920" width="140" height="370" as="geometry" />
        </mxCell>
        <mxCell id="pXFlcNNuTOrSGA1mzF-2-71" value="Test how the system handles multiple clients attempting to GET simultaneously and multiple content servers attempting to simultaneously PUT. Ensuring that the system is able to process these requests concurrently without any race conditions or unsafe mutations." style="text;strokeColor=none;fillColor=none;align=left;verticalAlign=middle;spacingLeft=4;spacingRight=4;overflow=hidden;points=[[0,0.5],[1,0.5]];portConstraint=eastwest;rotatable=0;whiteSpace=wrap;html=1;" vertex="1" parent="pXFlcNNuTOrSGA1mzF-2-70">
          <mxGeometry y="30" width="140" height="340" as="geometry" />
        </mxCell>
        <mxCell id="pXFlcNNuTOrSGA1mzF-2-74" value="Failure Testing" style="swimlane;fontStyle=0;childLayout=stackLayout;horizontal=1;startSize=30;horizontalStack=0;resizeParent=1;resizeParentMax=0;resizeLast=0;collapsible=1;marginBottom=0;whiteSpace=wrap;html=1;" vertex="1" parent="1">
          <mxGeometry x="600" y="920" width="140" height="370" as="geometry" />
        </mxCell>
        <mxCell id="pXFlcNNuTOrSGA1mzF-2-75" value="Test how the system handles errors and failures, such as a content server losing connection or sending invalid data. Ensure that the system is able to recover from these failures reliably and predictably." style="text;strokeColor=none;fillColor=none;align=left;verticalAlign=middle;spacingLeft=4;spacingRight=4;overflow=hidden;points=[[0,0.5],[1,0.5]];portConstraint=eastwest;rotatable=0;whiteSpace=wrap;html=1;" vertex="1" parent="pXFlcNNuTOrSGA1mzF-2-74">
          <mxGeometry y="30" width="140" height="340" as="geometry" />
        </mxCell>
        <mxCell id="pXFlcNNuTOrSGA1mzF-2-78" value="Performance Testing" style="swimlane;fontStyle=0;childLayout=stackLayout;horizontal=1;startSize=30;horizontalStack=0;resizeParent=1;resizeParentMax=0;resizeLast=0;collapsible=1;marginBottom=0;whiteSpace=wrap;html=1;" vertex="1" parent="1">
          <mxGeometry x="740" y="920" width="140" height="370" as="geometry" />
        </mxCell>
        <mxCell id="pXFlcNNuTOrSGA1mzF-2-79" value="Test the performance of the system under different loads, such as a large number of clients sending requests simultaneously or a large amount of weather data being uploaded by content servers. Ensure that the system is able to handle these loads without any significant degradation in performance." style="text;strokeColor=none;fillColor=none;align=left;verticalAlign=middle;spacingLeft=4;spacingRight=4;overflow=hidden;points=[[0,0.5],[1,0.5]];portConstraint=eastwest;rotatable=0;whiteSpace=wrap;html=1;" vertex="1" parent="pXFlcNNuTOrSGA1mzF-2-78">
          <mxGeometry y="30" width="140" height="340" as="geometry" />
        </mxCell>
        <mxCell id="pXFlcNNuTOrSGA1mzF-2-82" value="Aggregation Server replica 1" style="rounded=0;whiteSpace=wrap;html=1;" vertex="1" parent="1">
          <mxGeometry x="340" y="40" width="120" height="60" as="geometry" />
        </mxCell>
        <mxCell id="pXFlcNNuTOrSGA1mzF-2-83" value="Aggregation Server replica 2" style="rounded=0;whiteSpace=wrap;html=1;" vertex="1" parent="1">
          <mxGeometry x="480" y="40" width="120" height="60" as="geometry" />
        </mxCell>
        <mxCell id="pXFlcNNuTOrSGA1mzF-2-85" value="Aggregation Server replica 3" style="rounded=0;whiteSpace=wrap;html=1;" vertex="1" parent="1">
          <mxGeometry x="620" y="40" width="120" height="60" as="geometry" />
        </mxCell>
        <mxCell id="pXFlcNNuTOrSGA1mzF-2-87" value="Using locks for Aggregation server" style="swimlane;fontStyle=0;childLayout=stackLayout;horizontal=1;startSize=40;horizontalStack=0;resizeParent=1;resizeParentMax=0;resizeLast=0;collapsible=1;marginBottom=0;whiteSpace=wrap;html=1;" vertex="1" parent="1">
          <mxGeometry x="180" y="680" width="140" height="190" as="geometry" />
        </mxCell>
        <mxCell id="pXFlcNNuTOrSGA1mzF-2-88" value="We use a lock for the shared data structure of Aggregation server to ensure only one thread is accessing this at a time." style="text;strokeColor=none;fillColor=none;align=left;verticalAlign=middle;spacingLeft=4;spacingRight=4;overflow=hidden;points=[[0,0.5],[1,0.5]];portConstraint=eastwest;rotatable=0;whiteSpace=wrap;html=1;" vertex="1" parent="pXFlcNNuTOrSGA1mzF-2-87">
          <mxGeometry y="40" width="140" height="150" as="geometry" />
        </mxCell>
        <mxCell id="pXFlcNNuTOrSGA1mzF-2-91" value="&lt;b&gt;&lt;font style=&quot;font-size: 18px;&quot;&gt;Making Multi-threaded interaction safe&lt;/font&gt;&lt;/b&gt;" style="text;html=1;strokeColor=none;fillColor=none;align=center;verticalAlign=middle;whiteSpace=wrap;rounded=0;" vertex="1" parent="1">
          <mxGeometry x="60" y="700" width="120" height="110" as="geometry" />
        </mxCell>
        <mxCell id="pXFlcNNuTOrSGA1mzF-2-92" value="Using semaphores for coordination b/w client and content server" style="swimlane;fontStyle=0;childLayout=stackLayout;horizontal=1;startSize=40;horizontalStack=0;resizeParent=1;resizeParentMax=0;resizeLast=0;collapsible=1;marginBottom=0;whiteSpace=wrap;html=1;" vertex="1" parent="1">
          <mxGeometry x="320" y="680" width="160" height="190" as="geometry" />
        </mxCell>
        <mxCell id="pXFlcNNuTOrSGA1mzF-2-93" value="use a semaphore to ensure that the content server uploads new weather data to the aggregation server before GET client retrieves this data." style="text;strokeColor=none;fillColor=none;align=left;verticalAlign=middle;spacingLeft=4;spacingRight=4;overflow=hidden;points=[[0,0.5],[1,0.5]];portConstraint=eastwest;rotatable=0;whiteSpace=wrap;html=1;" vertex="1" parent="pXFlcNNuTOrSGA1mzF-2-92">
          <mxGeometry y="40" width="160" height="150" as="geometry" />
        </mxCell>
        <mxCell id="pXFlcNNuTOrSGA1mzF-2-120" value="" style="endArrow=classic;startArrow=classic;html=1;rounded=0;exitX=0.645;exitY=0.01;exitDx=0;exitDy=0;exitPerimeter=0;" edge="1" parent="1" source="7">
          <mxGeometry width="50" height="50" relative="1" as="geometry">
            <mxPoint x="620" y="150" as="sourcePoint" />
            <mxPoint x="670" y="100" as="targetPoint" />
          </mxGeometry>
        </mxCell>
        <mxCell id="pXFlcNNuTOrSGA1mzF-2-127" value="&lt;b&gt;&lt;font style=&quot;font-size: 18px;&quot;&gt;Testing&lt;/font&gt;&lt;/b&gt;" style="text;html=1;strokeColor=none;fillColor=none;align=center;verticalAlign=middle;whiteSpace=wrap;rounded=0;" vertex="1" parent="1">
          <mxGeometry x="50" y="930" width="120" height="110" as="geometry" />
        </mxCell>
        <mxCell id="pXFlcNNuTOrSGA1mzF-2-128" value="Lamport clocks" style="swimlane;fontStyle=0;childLayout=stackLayout;horizontal=1;startSize=40;horizontalStack=0;resizeParent=1;resizeParentMax=0;resizeLast=0;collapsible=1;marginBottom=0;whiteSpace=wrap;html=1;" vertex="1" parent="1">
          <mxGeometry x="480" y="680" width="350" height="190" as="geometry" />
        </mxCell>
        <mxCell id="pXFlcNNuTOrSGA1mzF-2-129" value="we can&amp;nbsp;use Lamport clocks to ensure that the aggregation server processes PUT and GET requests from the content server and GET client in the correct order. Each component in the system would maintain its own Lamport clock, which would be updated as the component communicates with other components or processes events. The local Lamport clocks would be sent with every message or request, allowing the receiving component to update its own Lamport clock accordingly." style="text;strokeColor=none;fillColor=none;align=left;verticalAlign=middle;spacingLeft=4;spacingRight=4;overflow=hidden;points=[[0,0.5],[1,0.5]];portConstraint=eastwest;rotatable=0;whiteSpace=wrap;html=1;" vertex="1" parent="pXFlcNNuTOrSGA1mzF-2-128">
          <mxGeometry y="40" width="350" height="150" as="geometry" />
        </mxCell>
        <mxCell id="pXFlcNNuTOrSGA1mzF-2-132" value="Content Server replica 2" style="rounded=0;whiteSpace=wrap;html=1;" vertex="1" parent="1">
          <mxGeometry x="630" y="580" width="120" height="60" as="geometry" />
        </mxCell>
        <mxCell id="pXFlcNNuTOrSGA1mzF-2-133" value="Content Server replica 3" style="rounded=0;whiteSpace=wrap;html=1;" vertex="1" parent="1">
          <mxGeometry x="830" y="580" width="120" height="60" as="geometry" />
        </mxCell>
        <mxCell id="pXFlcNNuTOrSGA1mzF-2-134" value="Content Server replica 1" style="rounded=0;whiteSpace=wrap;html=1;" vertex="1" parent="1">
          <mxGeometry x="430" y="580" width="120" height="60" as="geometry" />
        </mxCell>
        <mxCell id="pXFlcNNuTOrSGA1mzF-2-142" value="" style="endArrow=classic;startArrow=classic;html=1;rounded=0;entryX=0.4;entryY=1.025;entryDx=0;entryDy=0;entryPerimeter=0;exitX=0.167;exitY=0;exitDx=0;exitDy=0;exitPerimeter=0;" edge="1" parent="1" source="pXFlcNNuTOrSGA1mzF-2-134" target="pXFlcNNuTOrSGA1mzF-2-82">
          <mxGeometry width="50" height="50" relative="1" as="geometry">
            <mxPoint x="380" y="610" as="sourcePoint" />
            <mxPoint x="430" y="560" as="targetPoint" />
          </mxGeometry>
        </mxCell>
        <mxCell id="pXFlcNNuTOrSGA1mzF-2-143" value="" style="endArrow=classic;startArrow=classic;html=1;rounded=0;entryX=0.425;entryY=1.008;entryDx=0;entryDy=0;entryPerimeter=0;exitX=0.608;exitY=-0.042;exitDx=0;exitDy=0;exitPerimeter=0;" edge="1" parent="1" source="pXFlcNNuTOrSGA1mzF-2-132" target="pXFlcNNuTOrSGA1mzF-2-83">
          <mxGeometry width="50" height="50" relative="1" as="geometry">
            <mxPoint x="320" y="610" as="sourcePoint" />
            <mxPoint x="370" y="560" as="targetPoint" />
          </mxGeometry>
        </mxCell>
        <mxCell id="pXFlcNNuTOrSGA1mzF-2-144" value="" style="endArrow=classic;startArrow=classic;html=1;rounded=0;entryX=0.55;entryY=1.058;entryDx=0;entryDy=0;entryPerimeter=0;exitX=0.392;exitY=-0.008;exitDx=0;exitDy=0;exitPerimeter=0;" edge="1" parent="1" source="pXFlcNNuTOrSGA1mzF-2-133" target="pXFlcNNuTOrSGA1mzF-2-85">
          <mxGeometry width="50" height="50" relative="1" as="geometry">
            <mxPoint x="560" y="610" as="sourcePoint" />
            <mxPoint x="610" y="560" as="targetPoint" />
          </mxGeometry>
        </mxCell>
        <mxCell id="pXFlcNNuTOrSGA1mzF-2-145" value="Each content server replica would send PUT request to aggregation server replica" style="text;html=1;strokeColor=none;fillColor=none;align=center;verticalAlign=middle;whiteSpace=wrap;rounded=0;" vertex="1" parent="1">
          <mxGeometry x="240" y="590" width="170" height="30" as="geometry" />
        </mxCell>
        <mxCell id="pXFlcNNuTOrSGA1mzF-2-147" value="Each aggregatoin server replica would update it&#39;s data and send approriate response to contentserver replica" style="text;html=1;strokeColor=none;fillColor=none;align=center;verticalAlign=middle;whiteSpace=wrap;rounded=0;" vertex="1" parent="1">
          <mxGeometry x="80" y="50" width="220" height="30" as="geometry" />
        </mxCell>
      </root>
    </mxGraphModel>
  </diagram>
</mxfile>
